<svg width="428" height="658" viewBox="0 0 428 658" fill="none" xmlns="http://www.w3.org/2000/svg">
<path d="M57 0H93.5L202.5 335L427.5 658H71L57 0Z" fill="#FF5757"/>
<path d="M57 0H93.5L202.5 335L427.5 658H71L57 0Z" fill="#FF5757"/>
<path d="M57 0H93.5L202.5 335L427.5 658H71L57 0Z" fill="#FF5757"/>
<path d="M57 0H93.5L202.5 335L427.5 658H71L57 0Z" fill="#FF5757"/>
<path d="M21 0H57.5L166.5 335L294.5 658H35L21 0Z" fill="#FF0202"/>
<path d="M21 0H57.5L166.5 335L294.5 658H35L21 0Z" fill="#FF0202"/>
<path d="M21 0H57.5L166.5 335L294.5 658H35L21 0Z" fill="#FF0202"/>
<path d="M21 0H57.5L166.5 335L294.5 658H35L21 0Z" fill="#FF0202"/>
<path d="M0 0H22.5L154.5 658H0V0Z" fill="#FF3939"/>
<path d="M0 0H22.5L154.5 658H0V0Z" fill="#FF3939"/>
<path d="M0 0H22.5L154.5 658H0V0Z" fill="#FF3939"/>
<path d="M0 0H22.5L154.5 658H0V0Z" fill="#FF3939"/>
</svg>
